<svg width="81" height="80" viewBox="0 0 81 80" fill="none" xmlns="http://www.w3.org/2000/svg">
<g clip-path="url(#clip0_1_3222)">
<path d="M40.5 2.5C58.3823 2.5 73.2051 15.5989 75.897 32.725C75.9589 33.1186 76.155 33.4791 76.4414 33.7561C78.9435 36.1766 80.5 39.5732 80.5 43.3333C80.5 50.6971 74.5305 56.6667 67.1667 56.6667H65.5C64.5795 56.6667 63.8333 55.9205 63.8333 55V31.6667C63.8333 30.7462 64.5795 30 65.5 30H67.1667C67.2863 30 67.4056 30.0016 67.5244 30.0047C68.7867 30.038 69.8851 28.887 69.4499 27.7017C65.1222 15.9127 53.7936 7.5 40.5 7.5C27.2095 7.5 15.883 15.9089 11.5505 27.6966C11.1142 28.8838 12.2169 30.0374 13.4814 30.0046C13.5983 30.0015 13.7157 30 13.8333 30H15.5C16.4205 30 17.1667 30.7462 17.1667 31.6667V55C17.1667 55.9205 16.4205 56.6667 15.5 56.6667H13.8333C6.46954 56.6667 0.5 50.6971 0.5 43.3333C0.5 39.5728 2.05679 36.1759 4.56104 33.752C4.84713 33.475 5.04305 33.1146 5.10484 32.7213C7.79475 15.599 22.6177 2.5 40.5 2.5Z" fill="white" style="fill:white;fill-opacity:1;"/>
<path fill-rule="evenodd" clip-rule="evenodd" d="M52.831 10.8261C53.4619 10.3938 54.3131 10.2593 54.8651 10.7886C56.4914 12.3479 57.3448 14.95 57.4251 18.595C57.4362 19.0975 57.658 19.5736 58.0363 19.9044C63.6309 24.7965 67.1666 31.9853 67.1666 40V50C67.1666 64.7276 55.2276 76.6667 40.5 76.6667C25.7724 76.6667 13.8333 64.7276 13.8333 50V40C13.8333 25.2724 25.7724 13.3333 40.5 13.3333C46.2818 13.3333 50.3921 12.4976 52.831 10.8261Z" fill="url(#paint0_radial_1_3222)" style=""/>
<mask id="mask0_1_3222" style="mask-type:alpha" maskUnits="userSpaceOnUse" x="27" y="51" width="27" height="18">
<path d="M53.8334 55C53.8334 62.3638 47.8638 68.3334 40.5001 68.3334C33.1363 68.3334 27.1666 62.3638 27.1666 55V53.2776C27.1665 52.3571 27.9128 51.6108 28.8333 51.6108C29.0297 51.6108 29.2246 51.6455 29.409 51.7134C29.8525 51.8766 30.2352 52.0073 30.5568 52.1054C33.175 52.9038 35.954 53.3334 38.8334 53.3334H42.1667C45.0797 53.3334 47.89 52.8937 50.535 52.0773C50.8331 51.9852 51.1851 51.8645 51.591 51.7151C52.4549 51.3972 53.4128 51.8397 53.7308 52.7035C53.7987 52.8878 53.8334 53.0827 53.8334 53.2792V55Z" fill="white" style="fill:white;fill-opacity:1;"/>
</mask>
<g mask="url(#mask0_1_3222)">
<path opacity="0.95" d="M53.8334 55C53.8334 62.3638 47.8638 68.3334 40.5001 68.3334C33.1363 68.3334 27.1666 62.3638 27.1666 55V53.2776C27.1665 52.3571 27.9128 51.6108 28.8333 51.6108C29.0297 51.6108 29.2246 51.6455 29.409 51.7134C29.8525 51.8766 30.2352 52.0073 30.5568 52.1054C33.175 52.9038 35.954 53.3334 38.8334 53.3334H42.1667C45.0797 53.3334 47.89 52.8937 50.535 52.0773C50.8331 51.9852 51.1851 51.8645 51.591 51.7151C52.4549 51.3972 53.4128 51.8397 53.7308 52.7035C53.7987 52.8878 53.8334 53.0827 53.8334 53.2792V55Z" fill="#21242C" style="fill:#21242C;fill:color(display-p3 0.1294 0.1412 0.1725);fill-opacity:1;"/>
<path fill-rule="evenodd" clip-rule="evenodd" d="M23.8334 43.3333H57.1667V53.3333C46.0556 57.7778 34.9445 57.7777 23.8334 53.3333V43.3333Z" fill="white" style="fill:white;fill-opacity:1;"/>
</g>
<path opacity="0.95" fill-rule="evenodd" clip-rule="evenodd" d="M30.5 33.3333C32.3409 33.3333 33.8333 34.8257 33.8333 36.6667V40C33.8333 41.841 32.3409 43.3333 30.5 43.3333C28.659 43.3333 27.1666 41.841 27.1666 40V36.6667C27.1666 34.8257 28.659 33.3333 30.5 33.3333ZM50.5 33.3333C52.3409 33.3333 53.8333 34.8257 53.8333 36.6667V40C53.8333 41.841 52.3409 43.3333 50.5 43.3333C48.659 43.3333 47.1666 41.841 47.1666 40V36.6667C47.1666 34.8257 48.659 33.3333 50.5 33.3333Z" fill="#21242C" style="fill:#21242C;fill:color(display-p3 0.1294 0.1412 0.1725);fill-opacity:1;"/>
<path fill-rule="evenodd" clip-rule="evenodd" d="M49.3228 37.1561C50.2433 37.1561 50.9895 36.41 50.9895 35.4895C50.9895 34.569 50.2433 33.8228 49.3228 33.8228C48.4024 33.8228 47.6562 34.569 47.6562 35.4895C47.6562 36.41 48.4024 37.1561 49.3228 37.1561ZM29.3228 37.1562C30.2433 37.1562 30.9895 36.41 30.9895 35.4895C30.9895 34.569 30.2433 33.8228 29.3228 33.8228C28.4023 33.8228 27.6561 34.569 27.6561 35.4895C27.6561 36.41 28.4023 37.1562 29.3228 37.1562Z" fill="white" style="fill:white;fill-opacity:1;"/>
</g>
<defs>
<radialGradient id="paint0_radial_1_3222" cx="0" cy="0" r="1" gradientUnits="userSpaceOnUse" gradientTransform="translate(25.5 21.6667) rotate(57.2648) scale(55.4777 32.3203)">
<stop stop-color="#FFE14D" style="stop-color:#FFE14D;stop-color:color(display-p3 1.0000 0.8824 0.3020);stop-opacity:1;"/>
<stop offset="1" stop-color="#FF9500" style="stop-color:#FF9500;stop-color:color(display-p3 1.0000 0.5843 0.0000);stop-opacity:1;"/>
</radialGradient>
<clipPath id="clip0_1_3222">
<rect width="80" height="80" fill="white" style="fill:white;fill-opacity:1;" transform="translate(0.5)"/>
</clipPath>
</defs>
</svg>
