<svg width="213" height="64" viewBox="0 0 213 64" fill="none" xmlns="http://www.w3.org/2000/svg">
<g clip-path="url(#clip0_1_2484)">
<g clip-path="url(#clip1_1_2484)">
<path d="M24.1 56C37.3548 56 48.1 45.2548 48.1 32C48.1 18.7452 37.3548 8 24.1 8C10.8452 8 0.0999908 18.7452 0.0999908 32C0.0999908 45.2548 10.8452 56 24.1 56Z" fill="url(#paint0_linear_1_2484)" style=""/>
<g style="mix-blend-mode:multiply" opacity="0.3">
<path d="M24.1 41.6C29.4019 41.6 33.7 37.3019 33.7 32C33.7 26.6981 29.4019 22.4 24.1 22.4C18.7981 22.4 14.5 26.6981 14.5 32C14.5 37.3019 18.7981 41.6 24.1 41.6Z" fill="#FFB63C" style="fill:#FFB63C;fill:color(display-p3 1.0000 0.7137 0.2353);fill-opacity:1;"/>
</g>
<path d="M24.1 34.8C25.6464 34.8 26.9 33.5464 26.9 32C26.9 30.4536 25.6464 29.2 24.1 29.2C22.5536 29.2 21.3 30.4536 21.3 32C21.3 33.5464 22.5536 34.8 24.1 34.8Z" fill="white" style="fill:white;fill-opacity:1;"/>
</g>
<path fill-rule="evenodd" clip-rule="evenodd" d="M182.5 18.4C183.384 18.4 184.1 19.1164 184.1 20V42.4C184.1 43.2837 184.816 44 185.7 44H200.1V18.4H211.3C212.184 18.4 212.9 19.1164 212.9 20V52C212.9 55.5346 210.035 58.4 206.5 58.4H176.956C176.421 58.4 175.922 58.1326 175.625 57.6875L172.9 53.6H198.5C199.384 53.6 200.1 52.8837 200.1 52V46.4L200.029 46.6119C199.594 47.9186 198.371 48.8 196.994 48.8H177.7C174.165 48.8 171.3 45.9346 171.3 42.4V18.4H182.5ZM118.5 18.4C119.384 18.4 120.1 19.1164 120.1 20V52C120.1 55.5346 117.235 58.4 113.7 58.4H97.7563C97.2213 58.4 96.7218 58.1326 96.425 57.6875L93.7 53.6H105.7C106.584 53.6 107.3 52.8837 107.3 52V18.4H118.5ZM100.9 5.60001C101.784 5.60001 102.5 6.31635 102.5 7.20001V48.8H92.8064C91.429 48.8 90.2062 47.9186 89.7706 46.6119L89.7 46.4L89.6294 46.6119C89.1938 47.9186 87.9709 48.8 86.5936 48.8H67.3C63.7654 48.8 60.9 45.9346 60.9 42.4V24.8C60.9 21.2654 63.7654 18.4 67.3 18.4H86.5936C87.9709 18.4 89.1938 19.2814 89.6294 20.5881L89.7 20.8V5.60001H100.9ZM160.1 18.4C163.635 18.4 166.5 21.2654 166.5 24.8V48.8H156.807C155.431 48.8 154.21 47.9209 153.773 46.6166L153.7 46.4L153.629 46.6119C153.194 47.9186 151.971 48.8 150.594 48.8H131.3C127.765 48.8 124.9 45.9346 124.9 42.4V36C124.9 32.4654 127.765 29.6 131.3 29.6H153.7V24.8C153.7 23.9164 152.984 23.2 152.1 23.2H124.9C124.9 20.549 127.049 18.4 129.7 18.4H160.1ZM153.7 34.4H139.3C138.416 34.4 137.7 35.1164 137.7 36V42.4C137.7 43.2837 138.416 44 139.3 44H152.1C152.984 44 153.7 43.2837 153.7 42.4V34.4ZM89.7 23.2H75.3C74.4163 23.2 73.7 23.9164 73.7 24.8V42.4C73.7 43.2837 74.4163 44 75.3 44H88.1C88.9837 44 89.7 43.2837 89.7 42.4V23.2ZM120.1 5.60001V13.6H107.3V5.60001H120.1Z" fill="white" style="fill:white;fill-opacity:1;"/>
</g>
<defs>
<linearGradient id="paint0_linear_1_2484" x1="24.1" y1="8" x2="24.1" y2="56" gradientUnits="userSpaceOnUse">
<stop stop-color="#FFE359" style="stop-color:#FFE359;stop-color:color(display-p3 1.0000 0.8902 0.3490);stop-opacity:1;"/>
<stop offset="1" stop-color="#FF9500" style="stop-color:#FF9500;stop-color:color(display-p3 1.0000 0.5843 0.0000);stop-opacity:1;"/>
</linearGradient>
<clipPath id="clip0_1_2484">
<rect width="212.8" height="64" fill="white" style="fill:white;fill-opacity:1;" transform="translate(0.0999908)"/>
</clipPath>
<clipPath id="clip1_1_2484">
<rect width="48" height="48" fill="white" style="fill:white;fill-opacity:1;" transform="translate(0.0999908 8)"/>
</clipPath>
</defs>
</svg>
