<svg width="203" height="64" viewBox="0 0 203 64" fill="none" xmlns="http://www.w3.org/2000/svg">
<path fill-rule="evenodd" clip-rule="evenodd" d="M30.7502 53.2888C30.7502 53.2888 30.6658 53.7552 30.406 54.3214C30.1452 54.8872 29.7036 55.5527 28.9477 55.9362C28.5736 56.1156 28.1583 56.2028 27.746 56.2327C27.5391 56.2505 27.3357 56.2462 27.1404 56.227C26.9446 56.21 26.7552 56.1833 26.5779 56.1511C26.4006 56.1192 26.2354 56.0821 26.0874 56.0443C25.9418 56.0009 25.8133 55.9573 25.7068 55.9186C25.4936 55.8415 25.3684 55.7843 25.3684 55.7843C25.3684 55.7843 25.5299 55.339 25.8865 54.8236C26.0642 54.5654 26.2896 54.2893 26.5615 54.0399C26.6976 53.9147 26.8448 53.7975 27.0045 53.6901C27.1654 53.5796 27.3381 53.4804 27.5227 53.3984C27.893 53.2311 28.2712 53.1605 28.6407 53.119C29.0109 53.0757 29.365 53.0846 29.6744 53.1168C30.2991 53.1561 30.7502 53.2888 30.7502 53.2888Z" fill="white" style="fill:white;fill-opacity:1;"/>
<path fill-rule="evenodd" clip-rule="evenodd" d="M30.7197 53.421C30.7197 53.421 30.8445 52.9648 30.8741 52.3406C30.9047 51.7167 30.8454 50.9255 30.5192 50.2695C30.359 49.9292 30.1481 49.6508 29.9204 49.4268C29.8058 49.3175 29.6892 49.2137 29.5744 49.1172C29.4588 49.0229 29.3434 48.9408 29.2323 48.8696C29.1212 48.7986 29.0143 48.7386 28.9164 48.6887C28.8207 48.6328 28.7336 48.5873 28.6602 48.5517C28.513 48.4803 28.4196 48.4473 28.4196 48.4473C28.4196 48.4473 28.2196 48.8766 28.0826 49.4827C28.0145 49.7861 27.9632 50.134 27.967 50.4973C27.9691 50.6787 27.9843 50.8651 28.0189 51.0496C28.0549 51.2306 28.1094 51.411 28.1876 51.5869C28.3447 51.9359 28.5769 52.2463 28.8458 52.4861C29.1156 52.7237 29.4141 52.913 29.6908 53.059C30.2519 53.3273 30.7197 53.421 30.7197 53.421Z" fill="white" style="fill:white;fill-opacity:1;"/>
<path fill-rule="evenodd" clip-rule="evenodd" d="M26.0179 51.6565C26.0179 51.6565 25.8396 52.0955 25.4685 52.5979C25.2824 52.849 25.0469 53.1152 24.7552 53.3474C24.6094 53.4636 24.4496 53.5712 24.2747 53.6639C24.101 53.7545 23.9148 53.8256 23.7123 53.8771C23.3092 53.9771 22.8789 53.9885 22.4725 53.9285C22.0689 53.864 21.6809 53.7437 21.3449 53.6122C21.0126 53.4749 20.7382 53.3176 20.5431 53.2022C20.3486 53.0855 20.2371 53.0053 20.2371 53.0053C20.2371 53.0053 20.4858 52.6028 20.9411 52.1695C21.3957 51.7352 22.0514 51.2685 22.832 51.1114C23.2292 51.0226 23.6215 51.0178 23.9871 51.061C24.3508 51.1069 24.7049 51.1719 25.001 51.2665C25.1507 51.3112 25.2865 51.3624 25.4098 51.4069C25.5344 51.449 25.6432 51.4908 25.7334 51.5279C25.9134 51.6016 26.0179 51.6565 26.0179 51.6565Z" fill="white" style="fill:white;fill-opacity:1;"/>
<path fill-rule="evenodd" clip-rule="evenodd" d="M25.9605 51.7798C25.9605 51.7798 26.1766 51.3585 26.3328 50.7552C26.4115 50.4537 26.4763 50.1073 26.4981 49.7482C26.5088 49.5687 26.509 49.3861 26.4946 49.2046C26.4812 49.0208 26.4557 48.8334 26.4111 48.6525C26.3235 48.2873 26.1676 47.9827 25.9932 47.7115C25.8215 47.4354 25.6224 47.2081 25.4312 47.0272C25.2441 46.84 25.0708 46.6899 24.9388 46.5937C24.8077 46.496 24.7219 46.4461 24.7219 46.4461C24.7219 46.4461 24.4383 46.8259 24.1814 47.3897C23.9256 47.9536 23.6993 48.707 23.853 49.4741C23.9358 49.8471 24.1072 50.1857 24.3169 50.4833C24.525 50.7839 24.7878 51.0138 25.0287 51.2133C25.1505 51.3106 25.2675 51.3993 25.3783 51.4704C25.4899 51.539 25.592 51.5963 25.6784 51.6423C25.8509 51.7341 25.9605 51.7798 25.9605 51.7798Z" fill="white" style="fill:white;fill-opacity:1;"/>
<path fill-rule="evenodd" clip-rule="evenodd" d="M21.7166 49.0952C21.7166 49.0952 21.4526 49.4882 20.9858 49.9056C20.7527 50.113 20.4643 50.3302 20.1337 50.4949C19.804 50.659 19.4269 50.7764 19.0074 50.7967C18.7979 50.8067 18.5875 50.7922 18.3803 50.7588C18.1766 50.7214 17.9782 50.6619 17.7853 50.5913C17.4021 50.4467 17.0354 50.2621 16.7452 50.0518C16.4498 49.847 16.2069 49.6434 16.0384 49.4913C15.9531 49.4163 15.8898 49.3507 15.8475 49.3044C15.8056 49.2581 15.7822 49.2324 15.7822 49.2324C15.7822 49.2324 16.1087 48.8888 16.6402 48.5605C17.1684 48.234 17.9143 47.9031 18.7134 47.9063C19.1095 47.9121 19.5002 47.9813 19.8527 48.0944C20.0289 48.1509 20.1961 48.2179 20.3527 48.2906C20.5106 48.3615 20.6641 48.4306 20.8016 48.5048C21.0782 48.6507 21.3029 48.8022 21.4616 48.9147C21.6244 49.0216 21.7166 49.0952 21.7166 49.0952Z" fill="white" style="fill:white;fill-opacity:1;"/>
<path fill-rule="evenodd" clip-rule="evenodd" d="M21.6364 49.2041C21.6364 49.2041 21.9339 48.8355 22.209 48.2783C22.3478 47.9987 22.4787 47.6775 22.5756 47.3273C22.6732 46.9766 22.7322 46.6031 22.7171 46.233C22.7094 46.0477 22.6834 45.8722 22.6437 45.7067C22.6075 45.5371 22.5604 45.3747 22.5025 45.2241C22.3898 44.9203 22.23 44.6696 22.0923 44.4407C21.9495 44.2174 21.8042 44.0419 21.6938 43.9215C21.6377 43.8623 21.5939 43.8137 21.5638 43.7801C21.5327 43.7477 21.5155 43.7297 21.5155 43.7297C21.5155 43.7297 21.1607 44.0428 20.7908 44.5449C20.4193 45.0501 20.0521 45.7327 20.0483 46.5122C20.0426 46.9056 20.1467 47.2658 20.2947 47.5962C20.3685 47.7616 20.4539 47.9187 20.5447 48.0657C20.6369 48.2109 20.7409 48.3386 20.8404 48.4585C21.0416 48.6957 21.2376 48.8873 21.3853 49.0156C21.5375 49.1384 21.6364 49.2041 21.6364 49.2041Z" fill="white" style="fill:white;fill-opacity:1;"/>
<path fill-rule="evenodd" clip-rule="evenodd" d="M18.0267 45.7118C18.0267 45.7118 17.6874 46.043 17.1479 46.3533C16.6077 46.6626 15.8632 46.9477 15.0272 46.82C14.6096 46.7561 14.2293 46.5789 13.8753 46.3648C13.518 46.1529 13.2198 45.8799 12.9698 45.6205C12.7214 45.3598 12.5152 45.117 12.3923 44.9262C12.2645 44.7385 12.1966 44.6186 12.1966 44.6186C12.1966 44.6186 12.5866 44.3499 13.1756 44.1376C13.7644 43.9243 14.5424 43.7676 15.3369 43.9265C16.1161 44.0972 16.7829 44.537 17.253 44.9455C17.7399 45.3392 18.0267 45.7118 18.0267 45.7118Z" fill="white" style="fill:white;fill-opacity:1;"/>
<path fill-rule="evenodd" clip-rule="evenodd" d="M17.926 45.8019C17.926 45.8019 18.2923 45.5025 18.6787 45.0108C19.0659 44.5199 19.4778 43.84 19.5947 43.1145C19.6526 42.7516 19.6511 42.3956 19.595 42.0818C19.5356 41.7702 19.4543 41.476 19.3576 41.2303C19.2629 40.9838 19.1467 40.789 19.0746 40.6416C18.9978 40.4977 18.9414 40.4164 18.9414 40.4164C18.9414 40.4164 18.5295 40.6498 18.0652 41.0638C17.602 41.4788 17.0816 42.0838 16.9304 42.8371C16.7628 43.6003 17.016 44.3517 17.3005 44.9079C17.6031 45.451 17.926 45.8019 17.926 45.8019Z" fill="white" style="fill:white;fill-opacity:1;"/>
<path fill-rule="evenodd" clip-rule="evenodd" d="M15.1215 41.6357C15.1215 41.6357 14.7212 41.8896 14.128 42.0822C13.537 42.2728 12.739 42.4034 11.9528 42.1026C11.5668 41.9491 11.2196 41.7029 10.917 41.4204C10.6167 41.1366 10.3839 40.8069 10.1872 40.5041C10.0913 40.3516 10.0028 40.2063 9.93503 40.07C9.86843 39.9335 9.81325 39.8094 9.76948 39.7048C9.68173 39.4955 9.63917 39.3647 9.63917 39.3647C9.63917 39.3647 10.0761 39.1822 10.6971 39.0957C11.0074 39.0521 11.3633 39.031 11.7312 39.0622C12.098 39.094 12.4773 39.1774 12.8529 39.336C13.2254 39.4959 13.5409 39.7233 13.8139 39.9707C14.0977 40.213 14.3324 40.4792 14.5197 40.7278C14.7046 40.9777 14.8683 41.1969 14.9669 41.3644C15.0691 41.53 15.1215 41.6357 15.1215 41.6357Z" fill="white" style="fill:white;fill-opacity:1;"/>
<path fill-rule="evenodd" clip-rule="evenodd" d="M15.0033 41.7027C15.0033 41.7027 15.4237 41.4853 15.9023 41.0846C16.3838 40.6836 16.9165 40.1092 17.1864 39.4212C17.3278 39.0732 17.3881 38.7305 17.3976 38.4123C17.4096 38.0926 17.3931 37.7864 17.3434 37.5285C17.3212 37.3986 17.2891 37.281 17.2643 37.1733C17.2405 37.065 17.2151 36.9704 17.1913 36.8921C17.1443 36.7356 17.105 36.6447 17.105 36.6447C17.105 36.6447 16.6538 36.7882 16.1149 37.0972C15.8456 37.2524 15.5551 37.4504 15.2902 37.6989C15.024 37.9479 14.7847 38.2479 14.6361 38.5992C14.4845 38.9515 14.4201 39.3292 14.4183 39.6929C14.4275 40.0516 14.4919 40.3989 14.5731 40.7005C14.6521 41.0038 14.7735 41.248 14.8558 41.4256C14.9416 41.6014 15.0033 41.7027 15.0033 41.7027Z" fill="white" style="fill:white;fill-opacity:1;"/>
<mask id="mask0_1_2788" style="mask-type:alpha" maskUnits="userSpaceOnUse" x="8" y="32" width="6" height="6">
<path d="M8.18738 33.7173L12.1378 32.8053L13.123 37.0726L9.17256 37.9846L8.18738 33.7173Z" fill="white" style="fill:white;fill-opacity:1;"/>
</mask>
<g mask="url(#mask0_1_2788)">
<path fill-rule="evenodd" clip-rule="evenodd" d="M13.1176 37.0492C13.1176 37.0492 12.6738 37.2151 12.053 37.2819C11.7423 37.3147 11.387 37.3217 11.019 37.2642C10.652 37.2062 10.2643 37.0857 9.92153 36.8557C9.57421 36.6273 9.28349 36.3166 9.04377 35.9796C8.81598 35.64 8.64781 35.2721 8.51815 34.9364C8.38375 34.6014 8.31731 34.2923 8.27278 34.0704C8.22904 33.8478 8.21369 33.7113 8.21369 33.7113C8.21369 33.7113 8.67853 33.6214 9.30448 33.6626C9.61734 33.6827 9.97017 33.7343 10.3245 33.8395C10.68 33.9446 11.029 34.1043 11.3657 34.3355C11.6977 34.5678 11.9645 34.8535 12.1777 35.1521C12.4028 35.4479 12.583 35.7553 12.7156 36.0369C12.8437 36.3201 12.9538 36.5694 13.0202 36.7524C13.0874 36.9349 13.1176 37.0492 13.1176 37.0492Z" fill="white" style="fill:white;fill-opacity:1;"/>
</g>
<path fill-rule="evenodd" clip-rule="evenodd" d="M12.9876 37.0904C12.9876 37.0904 13.4437 36.9642 13.9939 36.6709C14.2693 36.5246 14.5682 36.338 14.8474 36.1108C15.1278 35.8834 15.3806 35.618 15.5935 35.305C15.8018 34.9934 15.9291 34.6696 16.0019 34.3591C16.0864 34.0459 16.1248 33.7436 16.1296 33.4797C16.1297 33.2165 16.1265 32.987 16.1109 32.8239C16.096 32.6611 16.0759 32.5639 16.0759 32.5639C16.0759 32.5639 15.6047 32.6128 15.0146 32.8061C14.7197 32.9032 14.395 33.038 14.0857 33.2277C13.7775 33.417 13.4763 33.6631 13.2609 33.9768C13.0407 34.2913 12.905 34.6472 12.8257 35.0037C12.758 35.3574 12.7549 35.7093 12.773 36.0212C12.7863 36.3347 12.8499 36.5999 12.8983 36.7893C12.9473 36.9787 12.9876 37.0904 12.9876 37.0904Z" fill="white" style="fill:white;fill-opacity:1;"/>
<path fill-rule="evenodd" clip-rule="evenodd" d="M12.0899 32.1501C12.0899 32.1501 11.6217 32.2224 10.9999 32.1619C10.6889 32.131 10.3396 32.0655 9.99036 31.9344C9.64004 31.8032 9.29065 31.606 9.00035 31.3105C8.70685 31.0153 8.48089 30.6513 8.31865 30.2713C8.16853 29.8911 8.07414 29.4956 8.01564 29.1391C7.95444 28.7827 7.95819 28.466 7.9559 28.2388C7.95764 28.0118 7.97009 27.8744 7.97009 27.8744C7.97009 27.8744 8.44326 27.882 9.04795 28.0516C9.65549 28.2201 10.3832 28.5447 10.9255 29.135C11.2042 29.4307 11.4083 29.7652 11.5575 30.1013C11.7094 30.4372 11.8309 30.7746 11.9024 31.0774C11.9409 31.2286 11.9652 31.3716 11.9917 31.5002C12.0195 31.6288 12.0397 31.7435 12.0541 31.84C12.0832 32.0322 12.0899 32.1501 12.0899 32.1501Z" fill="white" style="fill:white;fill-opacity:1;"/>
<path fill-rule="evenodd" clip-rule="evenodd" d="M11.9549 32.1643C11.9549 32.1643 12.4273 32.1333 13.0252 31.9579C13.3244 31.8706 13.6549 31.7485 13.974 31.5831C14.2918 31.4176 14.599 31.2089 14.8697 30.9465C15.1373 30.6842 15.3236 30.3945 15.4617 30.1063C15.6119 29.8179 15.7062 29.5312 15.7646 29.2749C15.8205 29.0189 15.8697 28.794 15.8833 28.6318C15.9011 28.4696 15.9004 28.3707 15.9004 28.3707C15.9004 28.3707 15.4292 28.3214 14.8128 28.389C14.1992 28.4578 13.4274 28.6484 12.8547 29.1731C12.5761 29.4353 12.372 29.7558 12.2227 30.0885C12.0763 30.421 12.0094 30.7647 11.9623 31.0738C11.9416 31.2283 11.9241 31.3745 11.9211 31.5056C11.9196 31.6368 11.9228 31.7539 11.9279 31.8515C11.9379 32.0468 11.9549 32.1643 11.9549 32.1643Z" fill="white" style="fill:white;fill-opacity:1;"/>
<path fill-rule="evenodd" clip-rule="evenodd" d="M12.0854 27.1451C12.0854 27.1451 11.6125 27.1192 11.0156 26.9313C10.4197 26.7425 9.69063 26.3853 9.23754 25.6853C8.76525 24.9833 8.68554 24.0776 8.71976 23.3568C8.77572 22.6396 8.93303 22.1095 8.93303 22.1095C8.93303 22.1095 9.39421 22.2148 9.95225 22.5058C10.5104 22.7956 11.1672 23.2664 11.5698 23.9547C11.7709 24.299 11.9145 24.6715 11.9913 25.0312C12.0646 25.3901 12.1112 25.7448 12.1247 26.0568C12.1403 26.3691 12.1158 26.6384 12.112 26.8338C12.1022 27.0283 12.0854 27.1451 12.0854 27.1451Z" fill="white" style="fill:white;fill-opacity:1;"/>
<path fill-rule="evenodd" clip-rule="evenodd" d="M11.9509 27.131C11.9509 27.131 12.4197 27.1983 13.04 27.1498C13.6606 27.1026 14.4246 26.9441 15.056 26.5421C15.6687 26.1364 16.0531 25.5682 16.2741 25.0914C16.517 24.6202 16.5906 24.2329 16.5906 24.2329C16.5906 24.2329 16.1395 24.0873 15.5238 24.0265C14.9075 23.9667 14.1249 23.9969 13.45 24.3906C13.1128 24.5873 12.8597 24.8614 12.6455 25.1562C12.4274 25.4503 12.2883 25.7721 12.1846 26.0657C12.0829 26.3598 12.0095 26.6252 11.9865 26.8191C11.9575 27.0124 11.9509 27.131 11.9509 27.131Z" fill="white" style="fill:white;fill-opacity:1;"/>
<path fill-rule="evenodd" clip-rule="evenodd" d="M13.1142 22.2463C13.1142 22.2463 12.6572 22.1235 12.1105 21.8163C11.5611 21.507 10.9443 21.015 10.63 20.2319C10.4678 19.8389 10.4223 19.4205 10.4311 19.0092C10.4352 18.8036 10.4537 18.6 10.4816 18.404C10.5114 18.2086 10.5595 18.0249 10.6066 17.8512C10.7038 17.5053 10.8152 17.208 10.9056 17.0003C11.0024 16.7955 11.0712 16.6763 11.0712 16.6763C11.0712 16.6763 11.5018 16.8742 11.9846 17.2714C12.2276 17.47 12.4792 17.7149 12.7092 18.0084C12.9401 18.3024 13.1426 18.6412 13.2725 19.0211C13.3373 19.2111 13.3809 19.4024 13.4075 19.5916C13.4392 19.7831 13.4573 19.9743 13.4612 20.1595C13.4724 20.5315 13.4187 20.8775 13.3779 21.1897C13.3305 21.4992 13.2626 21.7617 13.2064 21.9479C13.1475 22.1385 13.1142 22.2463 13.1142 22.2463Z" fill="white" style="fill:white;fill-opacity:1;"/>
<path fill-rule="evenodd" clip-rule="evenodd" d="M12.9841 22.2047C12.9841 22.2047 13.4291 22.3673 14.0448 22.4474C14.6566 22.5273 15.4598 22.5374 16.1457 22.2684C16.4839 22.1315 16.7857 21.9469 17.0324 21.7402C17.1557 21.6367 17.266 21.5282 17.3644 21.4184C17.4647 21.3097 17.5617 21.2039 17.6426 21.0992C17.8066 20.8912 17.923 20.6955 18.0024 20.5527C18.088 20.413 18.1299 20.3234 18.1299 20.3234C18.1299 20.3234 17.719 20.0888 17.1248 19.9012C16.8287 19.8086 16.4811 19.7265 16.1225 19.7019C15.7648 19.6778 15.3887 19.7083 15.0218 19.8335C14.8381 19.8959 14.6658 19.9791 14.5042 20.0768C14.3478 20.1767 14.2061 20.2926 14.0741 20.4161C13.8137 20.6647 13.585 20.9407 13.4334 21.2107C13.2747 21.4781 13.16 21.7267 13.0852 21.9075C13.0462 21.9975 13.022 22.0722 13.0071 22.1241C12.9924 22.1759 12.9841 22.2047 12.9841 22.2047Z" fill="white" style="fill:white;fill-opacity:1;"/>
<path fill-rule="evenodd" clip-rule="evenodd" d="M15.1288 17.6636C15.1288 17.6636 14.7059 17.4495 14.2371 17.0389C13.7695 16.6279 13.2561 16.0138 13.1048 15.1815C13.0396 14.7722 13.0734 14.349 13.1616 13.9455C13.2468 13.5399 13.414 13.1738 13.5721 12.8496C13.6535 12.689 13.7337 12.5397 13.8148 12.4108C13.8978 12.2836 13.9757 12.1725 14.043 12.0812C14.1773 11.8986 14.2676 11.7949 14.2676 11.7949C14.2676 11.7949 14.6486 12.0762 15.0417 12.5648C15.2384 12.8087 15.4391 13.1033 15.6013 13.4352C15.6826 13.6012 15.7539 13.7763 15.8104 13.9592C15.8686 14.1433 15.9164 14.3385 15.9424 14.5384C15.9969 14.9407 15.9597 15.3253 15.8917 15.6896C15.8283 16.057 15.7191 16.3942 15.6007 16.6818C15.4884 16.9734 15.3761 17.2214 15.2841 17.3927C15.1934 17.5647 15.1288 17.6636 15.1288 17.6636Z" fill="white" style="fill:white;fill-opacity:1;"/>
<path fill-rule="evenodd" clip-rule="evenodd" d="M15.01 17.5964C15.01 17.5964 15.4117 17.8463 16.0014 18.0527C16.5909 18.2601 17.3647 18.428 18.0881 18.3026C18.4603 18.2459 18.7867 18.1222 19.0662 17.9672C19.3431 17.8104 19.6012 17.6412 19.7967 17.4656C19.897 17.3796 19.9828 17.2923 20.0614 17.2148C20.142 17.1389 20.2102 17.0683 20.2653 17.0078C20.3753 16.8868 20.4333 16.8063 20.4333 16.8063C20.4333 16.8063 20.0786 16.4926 19.5367 16.1888C19.2653 16.0376 18.9464 15.8897 18.5972 15.79C18.4225 15.7402 18.2405 15.7026 18.0528 15.6825C17.867 15.664 17.6802 15.6664 17.4891 15.6911C17.1094 15.7422 16.7482 15.8781 16.4395 16.0662C16.1352 16.2573 15.8691 16.49 15.6507 16.7138C15.4383 16.9416 15.283 17.1661 15.1738 17.3285C15.0659 17.4917 15.01 17.5964 15.01 17.5964Z" fill="white" style="fill:white;fill-opacity:1;"/>
<path fill-rule="evenodd" clip-rule="evenodd" d="M18.0405 13.5917C18.0405 13.5917 17.6704 13.296 17.2941 12.7972C17.1063 12.5472 16.9178 12.2456 16.778 11.8997C16.7083 11.727 16.6499 11.5426 16.6115 11.3494C16.5758 11.1586 16.5592 10.9584 16.5677 10.7498C16.587 10.335 16.6964 9.91681 16.8718 9.54645C17.0488 9.1772 17.2746 8.83903 17.4961 8.55383C17.9566 8.00118 18.3952 7.66419 18.3952 7.66419C18.3952 7.66419 18.7101 8.01747 18.9956 8.57764C19.2818 9.13709 19.543 9.90021 19.4698 10.6922C19.4413 11.098 19.3349 11.4761 19.1897 11.8145C19.1151 11.9817 19.0364 12.1449 18.9568 12.3007C18.8755 12.4548 18.7895 12.5977 18.7038 12.728C18.618 12.8583 18.5324 12.9758 18.4521 13.079C18.376 13.1864 18.3053 13.2792 18.2445 13.3552C18.1227 13.5069 18.0405 13.5917 18.0405 13.5917Z" fill="white" style="fill:white;fill-opacity:1;"/>
<path fill-rule="evenodd" clip-rule="evenodd" d="M24.3241 9.51238C25.2209 8.88444 25.7841 7.96073 26.0136 6.74127C24.7892 6.53991 23.7286 6.75321 22.8318 7.38115C21.935 8.00909 21.3718 8.9328 21.1422 10.1523C22.3667 10.3536 23.4273 10.1403 24.3241 9.51238Z" fill="white" style="fill:white;fill-opacity:1;"/>
<path fill-rule="evenodd" clip-rule="evenodd" d="M17.9383 13.5018C17.9383 13.5018 18.2807 13.8285 18.8147 14.15C19.0811 14.3109 19.3947 14.4716 19.7325 14.5945C19.9016 14.6559 20.0757 14.7073 20.2549 14.7459C20.4365 14.787 20.622 14.8145 20.8084 14.8235C21.1834 14.8438 21.5175 14.7788 21.829 14.6913C22.1421 14.6054 22.4161 14.479 22.6433 14.3473C23.1138 14.1037 23.4014 13.8345 23.4014 13.8345C23.4014 13.8345 23.1185 13.4544 22.6516 13.0471C22.1839 12.6406 21.5279 12.2102 20.7478 12.1373C20.3665 12.1105 19.9939 12.1787 19.649 12.2954C19.4748 12.3516 19.3131 12.4258 19.1648 12.5099C19.0149 12.5922 18.8747 12.6808 18.7464 12.7696C18.6182 12.8583 18.502 12.9475 18.3998 13.0308C18.3021 13.1183 18.2183 13.2002 18.1499 13.2699C18.0131 13.4096 17.9383 13.5018 17.9383 13.5018Z" fill="white" style="fill:white;fill-opacity:1;"/>
<path d="M32.2075 54.1222L35.4901 54.987" stroke="white" style="stroke:white;stroke-opacity:1;" stroke-width="0.944524" stroke-linecap="round" stroke-linejoin="round"/>
<path fill-rule="evenodd" clip-rule="evenodd" d="M172.051 53.2888C172.051 53.2888 172.135 53.7552 172.395 54.3214C172.656 54.8872 173.097 55.5527 173.853 55.9362C174.227 56.1156 174.643 56.2028 175.055 56.2327C175.262 56.2505 175.465 56.2462 175.661 56.227C175.856 56.21 176.046 56.1833 176.223 56.1511C176.4 56.1192 176.566 56.0821 176.714 56.0443C176.859 56.0009 176.988 55.9573 177.094 55.9186C177.307 55.8415 177.433 55.7843 177.433 55.7843C177.433 55.7843 177.271 55.339 176.914 54.8236C176.737 54.5654 176.511 54.2893 176.239 54.0399C176.103 53.9147 175.956 53.7975 175.796 53.6901C175.636 53.5796 175.463 53.4804 175.278 53.3984C174.908 53.2311 174.53 53.1605 174.16 53.119C173.79 53.0757 173.436 53.0846 173.127 53.1168C172.502 53.1561 172.051 53.2888 172.051 53.2888Z" fill="white" style="fill:white;fill-opacity:1;"/>
<path fill-rule="evenodd" clip-rule="evenodd" d="M172.081 53.421C172.081 53.421 171.957 52.9648 171.927 52.3406C171.896 51.7167 171.956 50.9255 172.282 50.2695C172.442 49.9292 172.653 49.6508 172.881 49.4268C172.995 49.3175 173.112 49.2137 173.227 49.1172C173.342 49.0229 173.458 48.9408 173.569 48.8696C173.68 48.7986 173.787 48.7386 173.885 48.6887C173.98 48.6328 174.067 48.5873 174.141 48.5517C174.288 48.4803 174.381 48.4473 174.381 48.4473C174.381 48.4473 174.581 48.8766 174.718 49.4827C174.787 49.7861 174.838 50.134 174.834 50.4973C174.832 50.6787 174.817 50.8651 174.782 51.0496C174.746 51.2306 174.692 51.411 174.613 51.5869C174.456 51.9359 174.224 52.2463 173.955 52.4861C173.685 52.7237 173.387 52.913 173.11 53.059C172.549 53.3273 172.081 53.421 172.081 53.421Z" fill="white" style="fill:white;fill-opacity:1;"/>
<path fill-rule="evenodd" clip-rule="evenodd" d="M176.783 51.6565C176.783 51.6565 176.961 52.0955 177.333 52.5979C177.519 52.849 177.754 53.1152 178.046 53.3474C178.192 53.4636 178.351 53.5712 178.526 53.6639C178.7 53.7545 178.886 53.8256 179.089 53.8771C179.492 53.9771 179.922 53.9885 180.328 53.9285C180.732 53.864 181.12 53.7437 181.456 53.6122C181.788 53.4749 182.063 53.3176 182.258 53.2022C182.452 53.0855 182.564 53.0053 182.564 53.0053C182.564 53.0053 182.315 52.6028 181.86 52.1695C181.405 51.7352 180.75 51.2685 179.969 51.1114C179.572 51.0226 179.18 51.0178 178.814 51.061C178.45 51.1069 178.096 51.1719 177.8 51.2665C177.65 51.3112 177.515 51.3624 177.391 51.4069C177.267 51.449 177.158 51.4908 177.068 51.5279C176.888 51.6016 176.783 51.6565 176.783 51.6565Z" fill="white" style="fill:white;fill-opacity:1;"/>
<path fill-rule="evenodd" clip-rule="evenodd" d="M176.84 51.7798C176.84 51.7798 176.624 51.3585 176.468 50.7552C176.39 50.4537 176.325 50.1073 176.303 49.7482C176.292 49.5687 176.292 49.3861 176.306 49.2046C176.32 49.0208 176.345 48.8334 176.39 48.6525C176.478 48.2873 176.633 47.9827 176.808 47.7115C176.98 47.4354 177.179 47.2081 177.37 47.0272C177.557 46.84 177.73 46.6899 177.862 46.5937C177.993 46.496 178.079 46.4461 178.079 46.4461C178.079 46.4461 178.363 46.8259 178.62 47.3897C178.875 47.9536 179.102 48.707 178.948 49.4741C178.865 49.8471 178.694 50.1857 178.484 50.4833C178.276 50.7839 178.013 51.0138 177.772 51.2133C177.65 51.3106 177.533 51.3993 177.423 51.4704C177.311 51.539 177.209 51.5963 177.123 51.6423C176.95 51.7341 176.84 51.7798 176.84 51.7798Z" fill="white" style="fill:white;fill-opacity:1;"/>
<path fill-rule="evenodd" clip-rule="evenodd" d="M181.084 49.0952C181.084 49.0952 181.348 49.4882 181.815 49.9056C182.048 50.113 182.337 50.3302 182.667 50.4949C182.997 50.659 183.374 50.7764 183.794 50.7967C184.003 50.8067 184.213 50.7922 184.421 50.7588C184.624 50.7214 184.823 50.6619 185.016 50.5913C185.399 50.4467 185.766 50.2621 186.056 50.0518C186.351 49.847 186.594 49.6434 186.763 49.4913C186.848 49.4163 186.911 49.3507 186.953 49.3044C186.995 49.2581 187.019 49.2324 187.019 49.2324C187.019 49.2324 186.692 48.8888 186.161 48.5605C185.633 48.234 184.887 47.9031 184.088 47.9063C183.691 47.9121 183.301 47.9813 182.948 48.0944C182.772 48.1509 182.605 48.2179 182.448 48.2906C182.29 48.3615 182.137 48.4306 181.999 48.5048C181.723 48.6507 181.498 48.8022 181.339 48.9147C181.177 49.0216 181.084 49.0952 181.084 49.0952Z" fill="white" style="fill:white;fill-opacity:1;"/>
<path fill-rule="evenodd" clip-rule="evenodd" d="M181.165 49.2041C181.165 49.2041 180.867 48.8355 180.592 48.2783C180.453 47.9987 180.322 47.6775 180.225 47.3273C180.128 46.9766 180.069 46.6031 180.084 46.233C180.092 46.0477 180.118 45.8722 180.157 45.7067C180.193 45.5371 180.241 45.3747 180.298 45.2241C180.411 44.9203 180.571 44.6696 180.709 44.4407C180.851 44.2174 180.997 44.0419 181.107 43.9215C181.163 43.8623 181.207 43.8137 181.237 43.7801C181.268 43.7477 181.286 43.7297 181.286 43.7297C181.286 43.7297 181.64 44.0428 182.01 44.5449C182.382 45.0501 182.749 45.7327 182.753 46.5122C182.758 46.9056 182.654 47.2658 182.506 47.5962C182.432 47.7616 182.347 47.9187 182.256 48.0657C182.164 48.2109 182.06 48.3386 181.961 48.4585C181.759 48.6957 181.563 48.8873 181.416 49.0156C181.264 49.1384 181.165 49.2041 181.165 49.2041Z" fill="white" style="fill:white;fill-opacity:1;"/>
<path fill-rule="evenodd" clip-rule="evenodd" d="M184.774 45.7118C184.774 45.7118 185.114 46.043 185.653 46.3533C186.193 46.6626 186.938 46.9477 187.774 46.82C188.191 46.7561 188.572 46.5789 188.926 46.3648C189.283 46.1529 189.581 45.8799 189.831 45.6205C190.08 45.3598 190.286 45.117 190.409 44.9262C190.537 44.7385 190.604 44.6186 190.604 44.6186C190.604 44.6186 190.214 44.3499 189.625 44.1376C189.037 43.9243 188.259 43.7676 187.464 43.9265C186.685 44.0972 186.018 44.537 185.548 44.9455C185.061 45.3392 184.774 45.7118 184.774 45.7118Z" fill="white" style="fill:white;fill-opacity:1;"/>
<path fill-rule="evenodd" clip-rule="evenodd" d="M184.875 45.8019C184.875 45.8019 184.509 45.5025 184.122 45.0108C183.735 44.5199 183.323 43.84 183.206 43.1145C183.148 42.7516 183.15 42.3956 183.206 42.0818C183.265 41.7702 183.347 41.476 183.443 41.2303C183.538 40.9838 183.654 40.789 183.726 40.6416C183.803 40.4977 183.86 40.4164 183.86 40.4164C183.86 40.4164 184.271 40.6498 184.736 41.0638C185.199 41.4788 185.719 42.0838 185.871 42.8371C186.038 43.6003 185.785 44.3517 185.5 44.9079C185.198 45.451 184.875 45.8019 184.875 45.8019Z" fill="white" style="fill:white;fill-opacity:1;"/>
<path fill-rule="evenodd" clip-rule="evenodd" d="M187.679 41.6357C187.679 41.6357 188.08 41.8896 188.673 42.0822C189.264 42.2728 190.062 42.4034 190.848 42.1026C191.234 41.9491 191.581 41.7029 191.884 41.4204C192.184 41.1366 192.417 40.8069 192.614 40.5041C192.71 40.3516 192.798 40.2063 192.866 40.07C192.933 39.9335 192.988 39.8094 193.031 39.7048C193.119 39.4955 193.162 39.3647 193.162 39.3647C193.162 39.3647 192.725 39.1822 192.104 39.0957C191.794 39.0521 191.438 39.031 191.07 39.0622C190.703 39.094 190.324 39.1774 189.948 39.336C189.576 39.4959 189.26 39.7233 188.987 39.9707C188.703 40.213 188.469 40.4792 188.281 40.7278C188.096 40.9777 187.933 41.1969 187.834 41.3644C187.732 41.53 187.679 41.6357 187.679 41.6357Z" fill="white" style="fill:white;fill-opacity:1;"/>
<path fill-rule="evenodd" clip-rule="evenodd" d="M187.798 41.7027C187.798 41.7027 187.377 41.4853 186.899 41.0846C186.417 40.6836 185.884 40.1092 185.615 39.4212C185.473 39.0732 185.413 38.7305 185.403 38.4123C185.391 38.0926 185.408 37.7864 185.458 37.5285C185.48 37.3986 185.512 37.281 185.537 37.1733C185.56 37.065 185.586 36.9704 185.61 36.8921C185.657 36.7356 185.696 36.6447 185.696 36.6447C185.696 36.6447 186.147 36.7882 186.686 37.0972C186.955 37.2524 187.246 37.4504 187.511 37.6989C187.777 37.9479 188.016 38.2479 188.165 38.5992C188.316 38.9515 188.381 39.3292 188.383 39.6929C188.373 40.0516 188.309 40.3989 188.228 40.7005C188.149 41.0038 188.027 41.248 187.945 41.4256C187.859 41.6014 187.798 41.7027 187.798 41.7027Z" fill="white" style="fill:white;fill-opacity:1;"/>
<mask id="mask1_1_2788" style="mask-type:alpha" maskUnits="userSpaceOnUse" x="189" y="32" width="6" height="6">
<path d="M194.614 33.7173L190.663 32.8053L189.678 37.0726L193.628 37.9846L194.614 33.7173Z" fill="white" style="fill:white;fill-opacity:1;"/>
</mask>
<g mask="url(#mask1_1_2788)">
<path fill-rule="evenodd" clip-rule="evenodd" d="M189.683 37.0492C189.683 37.0492 190.127 37.2151 190.748 37.2819C191.059 37.3147 191.414 37.3217 191.782 37.2642C192.149 37.2062 192.537 37.0857 192.879 36.8557C193.227 36.6273 193.518 36.3166 193.757 35.9796C193.985 35.64 194.153 35.2721 194.283 34.9364C194.417 34.6014 194.484 34.2923 194.528 34.0704C194.572 33.8478 194.587 33.7113 194.587 33.7113C194.587 33.7113 194.122 33.6214 193.497 33.6626C193.184 33.6827 192.831 33.7343 192.477 33.8395C192.121 33.9446 191.772 34.1043 191.435 34.3355C191.103 34.5678 190.837 34.8535 190.623 35.1521C190.398 35.4479 190.218 35.7553 190.085 36.0369C189.957 36.3201 189.847 36.5694 189.781 36.7524C189.714 36.9349 189.683 37.0492 189.683 37.0492Z" fill="white" style="fill:white;fill-opacity:1;"/>
</g>
<path fill-rule="evenodd" clip-rule="evenodd" d="M189.813 37.0904C189.813 37.0904 189.357 36.9642 188.807 36.6709C188.532 36.5246 188.233 36.338 187.954 36.1108C187.673 35.8834 187.42 35.618 187.208 35.305C186.999 34.9934 186.872 34.6696 186.799 34.3591C186.715 34.0459 186.676 33.7436 186.671 33.4797C186.671 33.2165 186.674 32.987 186.69 32.8239C186.705 32.6611 186.725 32.5639 186.725 32.5639C186.725 32.5639 187.196 32.6128 187.786 32.8061C188.081 32.9032 188.406 33.038 188.715 33.2277C189.024 33.417 189.325 33.6631 189.54 33.9768C189.76 34.2913 189.896 34.6472 189.975 35.0037C190.043 35.3574 190.046 35.7093 190.028 36.0212C190.015 36.3347 189.951 36.5999 189.903 36.7893C189.854 36.9787 189.813 37.0904 189.813 37.0904Z" fill="white" style="fill:white;fill-opacity:1;"/>
<path fill-rule="evenodd" clip-rule="evenodd" d="M190.711 32.1501C190.711 32.1501 191.179 32.2224 191.801 32.1619C192.112 32.131 192.461 32.0655 192.811 31.9344C193.161 31.8032 193.51 31.606 193.801 31.3105C194.094 31.0153 194.32 30.6513 194.482 30.2713C194.632 29.8911 194.727 29.4956 194.785 29.1391C194.847 28.7827 194.843 28.466 194.845 28.2388C194.843 28.0118 194.831 27.8744 194.831 27.8744C194.831 27.8744 194.358 27.882 193.753 28.0516C193.145 28.2201 192.418 28.5447 191.875 29.135C191.597 29.4307 191.393 29.7652 191.243 30.1013C191.092 30.4372 190.97 30.7746 190.899 31.0774C190.86 31.2286 190.836 31.3716 190.809 31.5002C190.781 31.6288 190.761 31.7435 190.747 31.84C190.718 32.0322 190.711 32.1501 190.711 32.1501Z" fill="white" style="fill:white;fill-opacity:1;"/>
<path fill-rule="evenodd" clip-rule="evenodd" d="M190.846 32.1643C190.846 32.1643 190.374 32.1333 189.776 31.9579C189.477 31.8706 189.146 31.7485 188.827 31.5831C188.509 31.4176 188.202 31.2089 187.931 30.9465C187.664 30.6842 187.477 30.3945 187.339 30.1063C187.189 29.8179 187.095 29.5312 187.036 29.2749C186.98 29.0189 186.931 28.794 186.918 28.6318C186.9 28.4696 186.901 28.3707 186.901 28.3707C186.901 28.3707 187.372 28.3214 187.988 28.389C188.602 28.4578 189.374 28.6484 189.946 29.1731C190.225 29.4353 190.429 29.7558 190.578 30.0885C190.725 30.421 190.792 30.7647 190.839 31.0738C190.859 31.2283 190.877 31.3745 190.88 31.5056C190.881 31.6368 190.878 31.7539 190.873 31.8515C190.863 32.0468 190.846 32.1643 190.846 32.1643Z" fill="white" style="fill:white;fill-opacity:1;"/>
<path fill-rule="evenodd" clip-rule="evenodd" d="M190.716 27.1451C190.716 27.1451 191.188 27.1192 191.785 26.9313C192.381 26.7425 193.11 26.3853 193.563 25.6853C194.036 24.9833 194.115 24.0776 194.081 23.3568C194.025 22.6396 193.868 22.1095 193.868 22.1095C193.868 22.1095 193.407 22.2148 192.849 22.5058C192.291 22.7956 191.634 23.2664 191.231 23.9547C191.03 24.299 190.886 24.6715 190.81 25.0312C190.736 25.3901 190.69 25.7448 190.676 26.0568C190.661 26.3691 190.685 26.6384 190.689 26.8338C190.699 27.0283 190.716 27.1451 190.716 27.1451Z" fill="white" style="fill:white;fill-opacity:1;"/>
<path fill-rule="evenodd" clip-rule="evenodd" d="M190.85 27.131C190.85 27.131 190.381 27.1983 189.761 27.1498C189.14 27.1026 188.376 26.9441 187.745 26.5421C187.132 26.1364 186.748 25.5682 186.527 25.0914C186.284 24.6202 186.21 24.2329 186.21 24.2329C186.21 24.2329 186.661 24.0873 187.277 24.0265C187.893 23.9667 188.676 23.9969 189.351 24.3906C189.688 24.5873 189.941 24.8614 190.155 25.1562C190.374 25.4503 190.513 25.7721 190.616 26.0657C190.718 26.3598 190.791 26.6252 190.815 26.8191C190.843 27.0124 190.85 27.131 190.85 27.131Z" fill="white" style="fill:white;fill-opacity:1;"/>
<path fill-rule="evenodd" clip-rule="evenodd" d="M189.687 22.2463C189.687 22.2463 190.144 22.1235 190.69 21.8163C191.24 21.507 191.857 21.015 192.171 20.2319C192.333 19.8389 192.379 19.4205 192.37 19.0092C192.366 18.8036 192.347 18.6 192.319 18.404C192.29 18.2086 192.241 18.0249 192.194 17.8512C192.097 17.5053 191.986 17.208 191.895 17.0003C191.799 16.7955 191.73 16.6763 191.73 16.6763C191.73 16.6763 191.299 16.8742 190.816 17.2714C190.573 17.47 190.322 17.7149 190.092 18.0084C189.861 18.3024 189.658 18.6412 189.529 19.0211C189.464 19.2111 189.42 19.4024 189.394 19.5916C189.362 19.7831 189.344 19.9743 189.34 20.1595C189.329 20.5315 189.382 20.8775 189.423 21.1897C189.47 21.4992 189.538 21.7617 189.595 21.9479C189.653 22.1385 189.687 22.2463 189.687 22.2463Z" fill="white" style="fill:white;fill-opacity:1;"/>
<path fill-rule="evenodd" clip-rule="evenodd" d="M189.817 22.2047C189.817 22.2047 189.372 22.3673 188.756 22.4474C188.144 22.5273 187.341 22.5374 186.655 22.2684C186.317 22.1315 186.015 21.9469 185.769 21.7402C185.645 21.6367 185.535 21.5282 185.437 21.4184C185.336 21.3097 185.239 21.2039 185.158 21.0992C184.994 20.8912 184.878 20.6955 184.799 20.5527C184.713 20.413 184.671 20.3234 184.671 20.3234C184.671 20.3234 185.082 20.0888 185.676 19.9012C185.972 19.8086 186.32 19.7265 186.678 19.7019C187.036 19.6778 187.412 19.7083 187.779 19.8335C187.963 19.8959 188.135 19.9791 188.297 20.0768C188.453 20.1767 188.595 20.2926 188.727 20.4161C188.987 20.6647 189.216 20.9407 189.368 21.2107C189.526 21.4781 189.641 21.7267 189.716 21.9075C189.755 21.9975 189.779 22.0722 189.794 22.1241C189.809 22.1759 189.817 22.2047 189.817 22.2047Z" fill="white" style="fill:white;fill-opacity:1;"/>
<path fill-rule="evenodd" clip-rule="evenodd" d="M187.672 17.6636C187.672 17.6636 188.095 17.4495 188.564 17.0389C189.032 16.6279 189.545 16.0138 189.696 15.1815C189.761 14.7722 189.728 14.349 189.639 13.9455C189.554 13.5399 189.387 13.1738 189.229 12.8496C189.147 12.689 189.067 12.5397 188.986 12.4108C188.903 12.2836 188.825 12.1725 188.758 12.0812C188.624 11.8986 188.533 11.7949 188.533 11.7949C188.533 11.7949 188.152 12.0762 187.759 12.5648C187.563 12.8087 187.362 13.1033 187.2 13.4352C187.118 13.6012 187.047 13.7763 186.991 13.9592C186.932 14.1433 186.885 14.3385 186.859 14.5384C186.804 14.9407 186.841 15.3253 186.909 15.6896C186.973 16.057 187.082 16.3942 187.2 16.6818C187.313 16.9734 187.425 17.2214 187.517 17.3927C187.608 17.5647 187.672 17.6636 187.672 17.6636Z" fill="white" style="fill:white;fill-opacity:1;"/>
<path fill-rule="evenodd" clip-rule="evenodd" d="M187.791 17.5964C187.791 17.5964 187.389 17.8463 186.8 18.0527C186.21 18.2601 185.436 18.428 184.713 18.3026C184.341 18.2459 184.014 18.1222 183.735 17.9672C183.458 17.8104 183.2 17.6412 183.004 17.4656C182.904 17.3796 182.818 17.2923 182.74 17.2148C182.659 17.1389 182.591 17.0683 182.536 17.0078C182.426 16.8868 182.368 16.8063 182.368 16.8063C182.368 16.8063 182.722 16.4926 183.264 16.1888C183.536 16.0376 183.855 15.8897 184.204 15.79C184.378 15.7402 184.561 15.7026 184.748 15.6825C184.934 15.664 185.121 15.6664 185.312 15.6911C185.692 15.7422 186.053 15.8781 186.361 16.0662C186.666 16.2573 186.932 16.49 187.15 16.7138C187.363 16.9416 187.518 17.1661 187.627 17.3285C187.735 17.4917 187.791 17.5964 187.791 17.5964Z" fill="white" style="fill:white;fill-opacity:1;"/>
<path fill-rule="evenodd" clip-rule="evenodd" d="M184.76 13.5917C184.76 13.5917 185.131 13.296 185.507 12.7972C185.695 12.5472 185.883 12.2456 186.023 11.8997C186.093 11.727 186.151 11.5426 186.19 11.3494C186.225 11.1586 186.242 10.9584 186.233 10.7498C186.214 10.335 186.105 9.91681 185.929 9.54645C185.752 9.1772 185.526 8.83903 185.305 8.55383C184.844 8.00118 184.406 7.66419 184.406 7.66419C184.406 7.66419 184.091 8.01747 183.805 8.57764C183.519 9.13709 183.258 9.90021 183.331 10.6922C183.36 11.098 183.466 11.4761 183.611 11.8145C183.686 11.9817 183.765 12.1449 183.844 12.3007C183.925 12.4548 184.011 12.5977 184.097 12.728C184.183 12.8583 184.269 12.9758 184.349 13.079C184.425 13.1864 184.496 13.2792 184.556 13.3552C184.678 13.5069 184.76 13.5917 184.76 13.5917Z" fill="white" style="fill:white;fill-opacity:1;"/>
<path fill-rule="evenodd" clip-rule="evenodd" d="M178.477 9.51238C177.58 8.88444 177.017 7.96073 176.787 6.74127C178.012 6.53991 179.072 6.75321 179.969 7.38115C180.866 8.00909 181.429 8.9328 181.659 10.1523C180.434 10.3536 179.374 10.1403 178.477 9.51238Z" fill="white" style="fill:white;fill-opacity:1;"/>
<path fill-rule="evenodd" clip-rule="evenodd" d="M184.863 13.5018C184.863 13.5018 184.52 13.8285 183.986 14.15C183.72 14.3109 183.406 14.4716 183.068 14.5945C182.899 14.6559 182.725 14.7073 182.546 14.7459C182.365 14.787 182.179 14.8145 181.993 14.8235C181.618 14.8438 181.283 14.7788 180.972 14.6913C180.659 14.6054 180.385 14.479 180.158 14.3473C179.687 14.1037 179.4 13.8345 179.4 13.8345C179.4 13.8345 179.683 13.4544 180.149 13.0471C180.617 12.6406 181.273 12.2102 182.053 12.1373C182.435 12.1105 182.807 12.1787 183.152 12.2954C183.326 12.3516 183.488 12.4258 183.636 12.5099C183.786 12.5922 183.926 12.6808 184.055 12.7696C184.183 12.8583 184.299 12.9475 184.401 13.0308C184.499 13.1183 184.583 13.2002 184.651 13.2699C184.788 13.4096 184.863 13.5018 184.863 13.5018Z" fill="white" style="fill:white;fill-opacity:1;"/>
<path d="M170.594 54.1222L167.311 54.987" stroke="white" style="stroke:white;stroke-opacity:1;" stroke-width="0.944524" stroke-linecap="round" stroke-linejoin="round"/>
<path d="M47.6765 29.1429L51.0505 19.7075H52.9467L56.3207 29.1429H54.5487L53.751 26.7039H50.2397L49.442 29.1429H47.6765ZM51.979 21.388L50.6647 25.4027H53.326L52.0182 21.388H51.979ZM57.432 31.4314V22.2118H59.0601V23.4084H59.0928C59.4917 22.578 60.2502 22.068 61.2441 22.068C63.003 22.068 64.1145 23.4411 64.1145 25.6773V25.6839C64.1145 27.907 63.003 29.2802 61.2637 29.2802C60.2763 29.2802 59.4851 28.7832 59.0928 27.9724H59.0601V31.4314H57.432ZM60.7602 27.907C61.7998 27.907 62.4537 27.0505 62.4537 25.6839V25.6773C62.4537 24.2911 61.7998 23.4411 60.7602 23.4411C59.7532 23.4411 59.0471 24.3173 59.0471 25.6773V25.6839C59.0471 27.0374 59.7532 27.907 60.7602 27.907ZM65.4286 31.4314V22.2118H67.0567V23.4084H67.0894C67.4882 22.578 68.2467 22.068 69.2406 22.068C70.9995 22.068 72.1111 23.4411 72.1111 25.6773V25.6839C72.1111 27.907 70.9995 29.2802 69.2602 29.2802C68.2729 29.2802 67.4817 28.7832 67.0894 27.9724H67.0567V31.4314H65.4286ZM68.7568 27.907C69.7964 27.907 70.4503 27.0505 70.4503 25.6839V25.6773C70.4503 24.2911 69.7964 23.4411 68.7568 23.4411C67.7498 23.4411 67.0436 24.3173 67.0436 25.6773V25.6839C67.0436 27.0374 67.7498 27.907 68.7568 27.907ZM73.4709 29.1429V19.7075H75.099V29.1429H73.4709ZM79.8001 29.2802C77.7208 29.2802 76.4654 27.9005 76.4654 25.697V25.6904C76.4654 23.5065 77.7404 22.068 79.7216 22.068C81.7029 22.068 82.9321 23.4607 82.9321 25.5531V26.0762H78.0804C78.1066 27.2924 78.7735 28.0117 79.8328 28.0117C80.6436 28.0117 81.1732 27.5801 81.3302 27.1159L81.3432 27.0701H82.8667L82.8471 27.142C82.6314 28.2078 81.6113 29.2802 79.8001 29.2802ZM79.7412 23.343C78.8781 23.343 78.2308 23.925 78.1 24.9908H81.3498C81.2321 23.8923 80.6044 23.343 79.7412 23.343ZM87.3649 29.1429V19.7075H90.8107C93.6224 19.7075 95.2963 21.4076 95.2963 24.3892V24.4023C95.2963 27.3905 93.6355 29.1429 90.8107 29.1429H87.3649ZM89.0518 27.7174H90.6342C92.5304 27.7174 93.5766 26.5601 93.5766 24.4088V24.3958C93.5766 22.2903 92.5108 21.1329 90.6342 21.1329H89.0518V27.7174ZM99.7881 29.2802C97.7088 29.2802 96.4534 27.9005 96.4534 25.697V25.6904C96.4534 23.5065 97.7284 22.068 99.7097 22.068C101.691 22.068 102.92 23.4607 102.92 25.5531V26.0762H98.0684C98.0946 27.2924 98.7615 28.0117 99.8208 28.0117C100.632 28.0117 101.161 27.5801 101.318 27.1159L101.331 27.0701H102.855L102.835 27.142C102.619 28.2078 101.599 29.2802 99.7881 29.2802ZM99.7293 23.343C98.8662 23.343 98.2188 23.925 98.0881 24.9908H101.338C101.22 23.8923 100.592 23.343 99.7293 23.343ZM106.948 29.2802C105.13 29.2802 104.09 28.4171 103.946 27.1289L103.94 27.0701H105.542L105.555 27.1289C105.679 27.724 106.13 28.077 106.954 28.077C107.745 28.077 108.223 27.7566 108.223 27.2466V27.2401C108.223 26.8216 107.981 26.5862 107.262 26.4228L106.111 26.1677C104.783 25.8735 104.116 25.2262 104.116 24.1996V24.1931C104.116 22.9245 105.222 22.068 106.895 22.068C108.622 22.068 109.629 23.0161 109.687 24.2127L109.694 24.2846H108.177L108.17 24.2323C108.099 23.6765 107.654 23.2711 106.895 23.2711C106.176 23.2711 105.725 23.6046 105.725 24.1146V24.1211C105.725 24.52 105.993 24.7815 106.712 24.945L107.87 25.2C109.302 25.5204 109.857 26.0827 109.857 27.0897V27.0962C109.857 28.404 108.648 29.2802 106.948 29.2802ZM112.028 21.2179C111.518 21.2179 111.119 20.8125 111.119 20.3287C111.119 19.8317 111.518 19.4329 112.028 19.4329C112.538 19.4329 112.93 19.8317 112.93 20.3287C112.93 20.8125 112.538 21.2179 112.028 21.2179ZM111.211 29.1429V22.2118H112.839V29.1429H111.211ZM117.618 31.5687C115.781 31.5687 114.624 30.7318 114.427 29.6463L114.414 29.5875H116.016L116.036 29.6398C116.213 30.0387 116.768 30.3394 117.618 30.3394C118.678 30.3394 119.26 29.7771 119.26 28.8944V27.894H119.227C118.841 28.6328 118.056 29.1036 117.063 29.1036C115.323 29.1036 114.205 27.7697 114.205 25.612V25.6054C114.205 23.415 115.336 22.068 117.089 22.068C118.07 22.068 118.828 22.5911 119.22 23.3888H119.26V22.2118H120.888V28.9467C120.888 30.516 119.626 31.5687 117.618 31.5687ZM117.573 27.8482C118.586 27.8482 119.266 26.9916 119.266 25.6446V25.6381C119.266 24.2977 118.58 23.4411 117.573 23.4411C116.526 23.4411 115.866 24.2846 115.866 25.6316V25.6381C115.866 27.0047 116.526 27.8482 117.573 27.8482ZM122.489 29.1429V22.2118H124.118V23.2973H124.15C124.51 22.5518 125.216 22.068 126.269 22.068C127.792 22.068 128.662 23.0488 128.662 24.6573V29.1429H127.034V24.9842C127.034 23.9969 126.576 23.4411 125.648 23.4411C124.713 23.4411 124.118 24.1211 124.118 25.1216V29.1429H122.489ZM132.696 29.1429L136.07 19.7075H137.966L141.34 29.1429H139.568L138.77 26.7039H135.259L134.461 29.1429H132.696ZM136.998 21.388L135.684 25.4027H138.345L137.038 21.388H136.998ZM143.256 29.1429L141.379 22.2118H143.014L144.184 27.5343H144.217L145.57 22.2118H147.133L148.487 27.5343H148.526L149.696 22.2118H151.305L149.428 29.1429H147.715L146.348 24.0754H146.316L144.956 29.1429H143.256ZM154.234 29.2605C152.848 29.2605 151.913 28.404 151.913 27.1682V27.1551C151.913 25.9258 152.867 25.1869 154.548 25.0823L156.359 24.9712V24.4938C156.359 23.7942 155.901 23.3692 155.077 23.3692C154.306 23.3692 153.835 23.7288 153.73 24.2388L153.717 24.2977H152.207L152.213 24.2192C152.311 22.9899 153.377 22.068 155.136 22.068C156.869 22.068 157.987 22.9834 157.987 24.3761V29.1429H156.359V28.077H156.32C155.921 28.8028 155.149 29.2605 154.234 29.2605ZM153.534 27.1028C153.534 27.6716 154.005 28.0182 154.718 28.0182C155.653 28.0182 156.359 27.397 156.359 26.5731V26.05L154.776 26.1481C153.972 26.2004 153.534 26.547 153.534 27.0962V27.1028ZM159.569 29.1429V22.2118H161.197V23.4084H161.23C161.446 22.5715 162.021 22.068 162.819 22.068C163.022 22.068 163.211 22.1007 163.335 22.1334V23.6046C163.198 23.5523 162.95 23.513 162.675 23.513C161.753 23.513 161.197 24.095 161.197 25.1216V29.1429H159.569ZM166.755 29.2802C165.002 29.2802 163.891 27.907 163.891 25.6773V25.6708C163.891 23.4346 165.009 22.068 166.748 22.068C167.729 22.068 168.52 22.5715 168.913 23.4019H168.952V19.7075H170.58V29.1429H168.952V27.9659H168.913C168.52 28.7832 167.755 29.2802 166.755 29.2802ZM167.245 27.907C168.252 27.907 168.952 27.0374 168.952 25.6773V25.6708C168.952 24.3173 168.246 23.4411 167.245 23.4411C166.206 23.4411 165.552 24.2911 165.552 25.6708V25.6773C165.552 27.057 166.199 27.907 167.245 27.907Z" fill="white" style="fill:white;fill-opacity:1;"/>
<path d="M38.726 17.6662C38.2698 18.2188 37.4978 18.6311 36.8838 18.6311C36.8136 18.6311 36.7434 18.6223 36.6996 18.6136C36.6908 18.5785 36.6732 18.4732 36.6732 18.3679C36.6732 17.6662 37.0329 16.9644 37.4189 16.5258C37.9101 15.9468 38.7347 15.5169 39.419 15.4906C39.4365 15.5696 39.4453 15.6661 39.4453 15.7626C39.4453 16.4644 39.147 17.1574 38.726 17.6662ZM39.2084 18.7802C39.5944 18.7802 40.9892 18.8153 41.9016 20.1312C41.8226 20.1926 40.4366 20.9733 40.4366 22.719C40.4366 24.7367 42.1998 25.456 42.2524 25.4735C42.2437 25.5174 41.9717 26.4473 41.3226 27.4034C40.7436 28.2368 40.1295 29.079 39.2084 29.079C38.2786 29.079 38.0417 28.5351 36.9803 28.5351C35.9364 28.5351 35.5679 29.0965 34.7258 29.0965C33.8749 29.0965 33.2871 28.3158 32.6117 27.3683C31.8222 26.2455 31.1905 24.5086 31.1905 22.8594C31.1905 20.2189 32.9099 18.8153 34.603 18.8153C35.4978 18.8153 36.2434 19.4031 36.8136 19.4031C37.3487 19.4031 38.1821 18.7802 39.2084 18.7802Z" fill="white" style="fill:white;fill-opacity:1;"/>
<path d="M78.5089 36.9475H79.7543L81.9103 44.8216H81.9371L84.2672 36.9475H85.526L87.8426 44.8216H87.8694L90.0656 36.9475H91.244L88.4586 46.4286H87.24L84.8966 38.3938H84.8698L82.5129 46.4286H81.2809L78.5089 36.9475ZM92.6754 40.1615H93.7199V46.4286H92.6754V40.1615ZM92.4344 37.7109C92.4344 37.5055 92.5058 37.327 92.6486 37.1752C92.8004 37.0234 92.9834 36.9475 93.1977 36.9475C93.4119 36.9475 93.5905 37.0234 93.7333 37.1752C93.8851 37.327 93.961 37.5055 93.961 37.7109C93.961 37.934 93.8896 38.1171 93.7467 38.2599C93.6039 38.4027 93.4209 38.4742 93.1977 38.4742C92.9745 38.4742 92.7915 38.4027 92.6486 38.2599C92.5058 38.1171 92.4344 37.934 92.4344 37.7109ZM96.0665 41.6479C96.0665 41.3622 96.0576 41.0944 96.0398 40.8444C96.0219 40.5944 96.013 40.3668 96.013 40.1615H97.0039C97.0039 40.3311 97.0084 40.5007 97.0173 40.6703C97.0263 40.8399 97.0307 41.014 97.0307 41.1926H97.0575C97.1289 41.0408 97.2271 40.8935 97.3521 40.7507C97.486 40.6078 97.6423 40.4828 97.8208 40.3757C97.9994 40.2597 98.2002 40.1704 98.4234 40.1079C98.6466 40.0365 98.8876 40.0008 99.1465 40.0008C99.5572 40.0008 99.9098 40.0632 100.204 40.1882C100.508 40.3132 100.758 40.4873 100.954 40.7105C101.151 40.9337 101.294 41.206 101.383 41.5274C101.481 41.8398 101.53 42.1835 101.53 42.5585V46.4286H100.486V42.6656C100.486 42.1389 100.37 41.7238 100.137 41.4202C99.9054 41.1167 99.5438 40.9649 99.0528 40.9649C98.7136 40.9649 98.4189 41.023 98.169 41.139C97.9279 41.2551 97.7271 41.4202 97.5664 41.6345C97.4146 41.8487 97.2985 42.1032 97.2182 42.3978C97.1468 42.6924 97.1111 43.0183 97.1111 43.3754V46.4286H96.0665V41.6479ZM103.775 41.6479C103.775 41.3622 103.766 41.0944 103.749 40.8444C103.731 40.5944 103.722 40.3668 103.722 40.1615H104.713C104.713 40.3311 104.717 40.5007 104.726 40.6703C104.735 40.8399 104.74 41.014 104.74 41.1926H104.766C104.838 41.0408 104.936 40.8935 105.061 40.7507C105.195 40.6078 105.351 40.4828 105.53 40.3757C105.708 40.2597 105.909 40.1704 106.132 40.1079C106.355 40.0365 106.597 40.0008 106.855 40.0008C107.266 40.0008 107.619 40.0632 107.913 40.1882C108.217 40.3132 108.467 40.4873 108.663 40.7105C108.86 40.9337 109.002 41.206 109.092 41.5274C109.19 41.8398 109.239 42.1835 109.239 42.5585V46.4286H108.195V42.6656C108.195 42.1389 108.078 41.7238 107.846 41.4202C107.614 41.1167 107.253 40.9649 106.762 40.9649C106.422 40.9649 106.128 41.023 105.878 41.139C105.637 41.2551 105.436 41.4202 105.275 41.6345C105.123 41.8487 105.007 42.1032 104.927 42.3978C104.856 42.6924 104.82 43.0183 104.82 43.3754V46.4286H103.775V41.6479ZM117.082 45.2903C116.707 45.7724 116.296 46.1116 115.85 46.308C115.403 46.4955 114.886 46.5893 114.296 46.5893C113.805 46.5893 113.364 46.5044 112.971 46.3348C112.578 46.1563 112.243 45.9197 111.966 45.6251C111.699 45.3305 111.489 44.9823 111.337 44.5806C111.194 44.1788 111.123 43.7503 111.123 43.295C111.123 42.8129 111.203 42.371 111.364 41.9693C111.524 41.5586 111.748 41.2104 112.033 40.9248C112.319 40.6301 112.658 40.4025 113.051 40.2418C113.444 40.0811 113.872 40.0008 114.337 40.0008C114.774 40.0008 115.176 40.0766 115.542 40.2284C115.908 40.3712 116.22 40.5855 116.479 40.8712C116.747 41.1479 116.952 41.4916 117.095 41.9023C117.238 42.3041 117.309 42.7638 117.309 43.2816V43.6164H112.248C112.265 43.8842 112.328 44.1431 112.435 44.3931C112.551 44.6341 112.698 44.8484 112.877 45.0359C113.056 45.2144 113.265 45.3573 113.506 45.4644C113.747 45.5715 114.011 45.6251 114.296 45.6251C114.752 45.6251 115.136 45.5447 115.448 45.384C115.761 45.2233 116.042 44.9868 116.292 44.6743L117.082 45.2903ZM116.185 42.7326C116.167 42.1969 115.993 41.7684 115.662 41.447C115.332 41.1256 114.877 40.9649 114.296 40.9649C113.716 40.9649 113.247 41.1256 112.89 41.447C112.533 41.7684 112.319 42.1969 112.248 42.7326H116.185ZM119.193 41.6479C119.193 41.3622 119.184 41.0944 119.166 40.8444C119.149 40.5944 119.14 40.3668 119.14 40.1615H120.131C120.131 40.3311 120.135 40.5007 120.144 40.6703C120.153 40.8399 120.157 41.014 120.157 41.1926H120.184C120.256 41.0408 120.354 40.8935 120.479 40.7507C120.613 40.6078 120.769 40.4828 120.947 40.3757C121.126 40.2597 121.327 40.1704 121.55 40.1079C121.773 40.0365 122.014 40.0008 122.273 40.0008C122.345 40.0008 122.416 40.0052 122.487 40.0141C122.559 40.0231 122.63 40.0409 122.702 40.0677L122.635 41.1256C122.456 41.0721 122.269 41.0453 122.072 41.0453C121.429 41.0453 120.961 41.2551 120.666 41.6747C120.381 42.0853 120.238 42.6522 120.238 43.3754V46.4286H119.193V41.6479Z" fill="white" style="fill:white;fill-opacity:1;"/>
</svg>
